HIERARCHY
ROOT Hips
{
	OFFSET 0.000000 0.000000 0.000000 
	CHANNELS 6 Xposition Yposition Zposition Yrotation Zrotation Xrotation 
	JOINT Lumbar
	{
		OFFSET 0.000000 0.000000 0.000000 
		CHANNELS 3 Zrotation Xrotation Yrotation
		JOINT Neck
		{
			OFFSET 0.000000 0.445665 0.000000 
			CHANNELS 3 Zrotation Xrotation Yrotation
			End Site
			{
				OFFSET 0.000000 0.227535 0.000000 
			}
		}
		JOINT RightShoulder
		{
			OFFSET 0.019635 0.377685 0.194865 
			CHANNELS 3 Zrotation Xrotation Yrotation
			JOINT RightElbow
			{
				OFFSET 0.000000 -0.243375 0.000000 
				CHANNELS 2 Zrotation Yrotation
				JOINT RightWrist
				{
					OFFSET 0.000000 -0.264825 0.000000 
					CHANNELS 2 Zrotation Xrotation
					End Site
					{
						OFFSET 0.006600 -0.176220 0.000990 
					}
				}
			}
		}
		JOINT LeftShoulder
		{
			OFFSET 0.019635 0.377685 -0.194865 
			CHANNELS 3 Zrotation Xrotation Yrotation
			JOINT LeftElbow
			{
				OFFSET 0.000000 -0.243375 0.000000 
				CHANNELS 2 Zrotation Yrotation
				JOINT LeftWrist
				{
					OFFSET 0.000000 -0.264825 0.000000 
					CHANNELS 2 Zrotation Xrotation
					End Site
					{
						OFFSET 0.006600 -0.176220 -0.000990 
					}
				}
			}
		}
	}
	JOINT RightHip
	{
		OFFSET 0.052140 -0.069960 0.075570 
		CHANNELS 3 Zrotation Xrotation Yrotation
		JOINT RightKnee
		{
			OFFSET 0.000000 -0.402270 0.000000 
			CHANNELS 1 Zrotation
			JOINT RightAnkle
			{
				OFFSET 0.000000 -0.404085 0.000000 
				CHANNELS 3 Zrotation Xrotation Yrotation
				End Site
				{
					OFFSET 0.204105 -0.089430 0.008415 
				}
			}
		}
	}
	JOINT LeftHip
	{
		OFFSET 0.052140 -0.069960 -0.075570 
		CHANNELS 3 Zrotation Xrotation Yrotation
		JOINT LeftKnee
		{
			OFFSET 0.000000 -0.402270 0.000000 
			CHANNELS 1 Zrotation
			JOINT LeftAnkle
			{
				OFFSET 0.000000 -0.404085 0.000000 
				CHANNELS 3 Zrotation Xrotation Yrotation
				End Site
				{
					OFFSET 0.204105 -0.089430 -0.008415 
				}
			}
		}
	}
}
MOTION
Frames: 19
Frame Time: 0.02
0.03333 -0.00039 0.03478 -182.46303 -40.20257 -5.52173 41.4265 -0.30435 17.25913 -2.5449 12.57738 -0.83036 52.67257 -17.59975 53.63153 63.61964 88.7406 16.21951 -2.26876 22.35536 35.24153 -29.76609 112.54044 -83.14259 -1.75893 -3.00439 48.13444 -4.27242 -6.16073 -22.05055 -7.79292 -4.14606 -2.88509 52.41587 7.82131 -0.78966 -27.65411 -7.06616 3.33541 2.40516
0.03374 -0.00033 0.03468 -182.45222 -40.25608 -5.57975 41.40266 -0.28684 17.1755 -2.40278 12.66405 -0.83036 56.30307 -18.07141 55.44045 58.65037 88.44913 13.59666 -2.25641 22.34041 34.72604 -30.93412 112.45219 -83.13098 -1.76053 -3.08064 48.18654 -4.24569 -6.3067 -21.9781 -7.80053 -4.14668 -2.88627 52.53807 7.87848 -0.7514 -27.65447 -7.07427 3.32757 2.39781
0.03404 -0.00031 0.03466 -182.25604 -40.30348 -5.63709 41.38266 -0.2737 17.05987 -2.24777 12.69397 -0.83036 59.80008 -19.38289 57.78945 53.14766 88.59223 11.13518 -2.19386 22.53395 34.13923 -32.22581 112.28907 -83.15933 -1.6856 -3.13456 48.18282 -4.22398 -6.52141 -21.89316 -7.815 -4.16198 -2.89638 52.67155 7.93773 -0.70732 -27.6588 -7.08 3.30326 2.37953
0.03436 -0.00028 0.0346 -182.13459 -40.35162 -5.69447 41.36228 -0.25842 16.95758 -2.1035 12.74702 -0.83037 63.25925 -20.31886 59.82011 47.93501 88.56459 8.69105 -2.11377 22.62925 33.5837 -33.4519 112.15682 -83.23402 -1.61852 -3.19677 48.19948 -4.19774 -6.69648 -21.81526 -7.82723 -4.17227 -2.90342 52.79654 7.99518 -0.67032 -27.66165 -7.08653 3.28618 2.36612
0.0348 -0.00023 0.03455 -182.05047 -40.40933 -5.75354 41.33643 -0.24297 16.85783 -1.93678 12.81093 -0.83037 67.16824 -21.23612 62.15168 42.45209 88.41624 5.83968 -2.19391 22.74442 33.02886 -34.71868 112.03493 -83.04549 -1.66397 -3.26601 48.23756 -4.18074 -6.90874 -21.73026 -7.83614 -4.17576 -2.90645 52.938 8.05533 -0.61929 -27.66311 -7.09448 3.2705 2.35327
0.03497 -0.00023 0.03449 -181.84601 -40.44516 -5.80857 41.32265 -0.2294 16.74637 -1.81494 12.83857 -0.83037 70.08842 -22.38957 63.98832 37.44293 88.6352 3.88672 -1.93976 22.86442 32.45841 -35.92782 111.87619 -83.40273 -1.45894 -3.31711 48.21741 -4.14611 -7.06061 -21.65767 -7.85327 -4.19661 -2.91975 53.0466 8.11115 -0.59225 -27.66842 -7.09878 3.24756 2.33645
0.03445 -0.00032 0.03442 -181.35058 -40.4238 -5.85439 41.34291 -0.21783 16.60759 -1.81439 12.78356 -0.83037 70.39525 -23.98236 64.31004 33.74542 89.63337 4.34476 -0.68186 22.96274 31.8482 -36.96962 111.61718 -85.36418 -0.56075 -3.30333 48.05303 -4.05739 -7.01108 -21.62183 -7.89372 -4.26438 -2.96084 53.06619 8.1485 -0.65942 -27.68339 -7.09384 3.21263 2.31332
0.03366 -0.00045 0.03434 -180.74185 -40.38028 -5.89573 41.37495 -0.20846 16.45879 -1.86083 12.69326 -0.83037 69.69037 -25.78349 64.11589 30.57981 91.00316 5.70971 0.89349 23.05484 31.22824 -37.94453 111.32711 -87.85482 0.58298 -3.27447 47.83163 -3.95151 -6.90087 -21.59926 -7.94175 -4.34863 -3.01164 53.05127 8.18231 -0.74656 -27.7021 -7.08521 3.1704 2.28631
0.03298 -0.00056 0.03426 -180.18755 -40.34554 -5.93797 41.40036 -0.19958 16.31701 -1.88957 12.6171 -0.83037 69.3919 -27.49377 64.17304 27.25591 92.29507 6.6829 2.26192 23.13932 30.62177 -38.93654 111.06241 -90.03168 1.60141 -3.26721 47.63416 -3.85619 -6.83015 -21.57112 -7.9848 -4.42365 -3.05692 53.04883 8.22206 -0.80569 -27.71913 -7.07805 3.12867 2.25967
0.03235 -0.00068 0.03419 -179.61301 -40.3157 -5.98518 41.4309 -0.18464 16.16452 -1.90188 12.54772 -0.83037 69.32183 -29.21993 64.18988 23.54004 93.24497 7.57681 3.8953 23.27687 29.97255 -39.99161 110.74717 -92.51448 2.68131 -3.20198 47.44229 -3.74936 -6.71321 -21.54036 -8.03461 -4.50656 -3.10722 53.06007 8.24473 -0.94087 -27.73626 -7.07172 3.09755 2.23815
0.03156 -0.0008 0.03409 -179.05783 -40.27089 -6.02072 41.45399 -0.1827 16.03133 -1.96041 12.45564 -0.83037 68.5283 -30.94827 64.14596 20.79924 94.95597 8.84722 5.05324 23.29763 29.41346 -40.89455 110.53127 -94.4913 3.68933 -3.24788 47.22699 -3.66239 -6.67522 -21.51865 -8.07203 -4.57674 -3.14923 53.03481 8.30067 -0.92712 -27.75398 -7.0628 3.04369 2.20566
0.03034 -0.00095 0.03391 -178.57092 -40.18669 -6.02745 41.44922 -0.21684 15.96324 -2.12908 12.31794 -0.83037 66.06646 -32.65303 64.19373 20.40869 98.96919 10.95126 4.80601 23.0145 29.08512 -41.4217 110.59376 -94.88554 4.44744 -3.66009 46.95235 -3.63423 -6.88682 -21.51638 -8.07329 -4.60781 -3.16598 52.91417 8.46201 -0.4563 -27.77278 -7.04756 2.92148 2.13978
0.02896 -0.00111 0.0337 -178.11114 -40.08887 -6.02218 41.43727 -0.26383 15.91353 -2.34359 12.15754 -0.83037 62.90055 -34.34303 64.1746 21.02151 103.68108 13.39786 4.07213 22.61033 28.85208 -41.79252 110.75821 -94.76032 5.12205 -4.17538 46.65806 -3.62668 -7.17649 -21.52321 -8.06176 -4.62539 -3.17399 52.75845 8.65472 0.15798 -27.79195 -7.02988 2.77808 2.0638
0.02766 -0.00127 0.03349 -177.64788 -39.99961 -6.02082 41.43154 -0.30445 15.8492 -2.54135 12.00195 -0.83037 59.99906 -36.0234 64.09091 21.31952 107.87702 15.67818 3.57004 22.24867 28.58918 -42.21558 110.87885 -94.91224 5.82975 -4.60577 46.37861 -3.6098 -7.41905 -21.52748 -8.05612 -4.64905 -3.18598 52.62076 8.82458 0.67908 -27.81072 -7.01337 2.64934 1.99517
0.02632 -0.00143 0.03331 -177.14163 -39.89959 -6.02568 41.41402 -0.3474 15.81019 -2.72438 11.86735 -0.83037 57.28112 -37.78676 64.374 21.04807 112.91513 18.04051 3.03298 21.93757 28.2689 -42.71454 110.98823 -94.91844 6.56947 -5.19214 46.07189 -3.59213 -7.70857 -21.52569 -8.05051 -4.67361 -3.19833 52.47323 9.03003 1.31546 -27.83067 -6.99645 2.49924 1.9148
0.02504 -0.00158 0.03308 -176.73481 -39.81898 -6.01496 41.41884 -0.3885 15.72391 -2.94727 11.68534 -0.83037 54.04641 -39.36316 63.90457 22.18361 116.37123 20.29462 2.45054 21.49511 28.09114 -43.02068 111.145 -95.0864 7.21582 -5.48347 45.81844 -3.58125 -7.91968 -21.53835 -8.04162 -4.69274 -3.20763 52.33811 9.16956 1.74876 -27.8481 -6.97988 2.38854 1.85645
0.024 -0.00172 0.03272 -176.58041 -39.79599 -5.963 41.49027 -0.42157 15.49435 -3.27801 11.36773 -0.83038 49.39638 -40.48998 61.19586 27.04644 115.18852 22.21969 1.84731 20.69692 28.28181 -42.81958 111.41405 -95.92582 7.65464 -4.89037 45.71431 -3.58381 -7.89464 -21.58993 -8.02739 -4.7014 -3.21143 52.24783 9.11305 1.56266 -27.85946 -6.96456 2.3931 1.86218
0.02304 -0.00185 0.0323 -176.5287 -39.79305 -5.89606 41.58379 -0.45227 15.21824 -3.64517 11.00536 -0.83038 44.28726 -41.41564 57.76677 33.26974 112.40585 24.00862 1.21631 19.77519 28.61281 -42.43268 111.7262 -96.92635 7.99579 -4.00499 45.66538 -3.59261 -7.78832 -21.65543 -8.01016 -4.70475 -3.21226 52.17119 8.99027 1.1715 -27.86806 -6.94977 2.43787 1.89029
0.02205 -0.00198 0.03192 -176.44064 -39.78051 -5.83673 41.66509 -0.48391 14.96887 -3.98975 10.67028 -0.83038 39.4968 -42.39163 54.78795 38.81255 110.41942 25.82117 0.60594 18.92456 28.88107 -42.13968 112.0147 -97.78471 8.36052 -3.28292 45.59299 -3.59888 -7.71998 -21.71368 -7.99387 -4.70964 -3.21386 52.08703 8.90205 0.89007 -27.87725 -6.93495 2.46337 1.9076
